<?xml version="1.0" encoding="UTF-8" standalone="no"?>
<!DOCTYPE svg PUBLIC "-//W3C//DTD SVG 1.1//EN" "http://www.w3.org/Graphics/SVG/1.1/DTD/svg11.dtd">
<svg width="100%" height="100%" viewBox="0 0 623 168" version="1.1" xmlns="http://www.w3.org/2000/svg" xmlns:xlink="http://www.w3.org/1999/xlink" xml:space="preserve" xmlns:serif="http://www.serif.com/" style="fill-rule:evenodd;clip-rule:evenodd;stroke-linejoin:round;stroke-miterlimit:2;">
    <g id="Logo">
        <path d="M31.865,55.678C32.5,53.845 33.644,52.504 35.608,51.928C38.865,50.972 42.239,53.242 42.473,56.335C42.674,58.992 41.375,61.172 38.809,61.955C36.141,62.769 33.147,61.699 32.04,58.569C32.006,58.473 31.924,58.394 31.864,58.307C31.865,57.43 31.865,56.554 31.865,55.678Z"/>
        <path d="M30.245,59.479C31.805,63.559 35.812,64.96 39.393,63.868C39.393,63.868 39.393,63.868 39.393,63.868C42.915,62.793 44.743,59.831 44.467,56.184C44.467,56.184 44.467,56.184 44.467,56.184C44.144,51.913 39.543,48.689 35.045,50.009C32.402,50.784 30.83,52.556 29.975,55.023C29.902,55.234 29.865,55.455 29.865,55.678C29.865,56.553 29.865,57.428 29.864,58.305C29.864,58.711 29.987,59.108 30.218,59.442L30.245,59.479ZM31.865,55.678C32.5,53.845 33.644,52.504 35.608,51.928C38.865,50.972 42.239,53.242 42.473,56.335C42.674,58.992 41.375,61.172 38.809,61.955C36.141,62.769 33.147,61.699 32.04,58.569C32.006,58.473 31.924,58.394 31.864,58.307C31.865,57.43 31.865,56.554 31.865,55.678Z" style="fill:white;"/>
        <path d="M98.337,72.277L84.592,73.885L82.053,78.784L72.661,92.851L53.699,97.828L48.841,100.974L57.205,107.498L68.45,114.62L82.635,119.801L93.004,122.76L101.761,119.266L106.523,108.929L116.567,94.288L118.33,88.41L110.795,76.822L114.385,66.939L103.387,63.049L98.337,72.277Z" style="fill:white;"/>
        <path d="M97.079,70.41L84.36,71.898C83.7,71.975 83.122,72.375 82.816,72.964L80.328,77.766C80.328,77.766 71.419,91.109 71.419,91.109C71.419,91.109 53.191,95.894 53.191,95.894C52.986,95.948 52.791,96.034 52.612,96.149L47.754,99.295C47.211,99.646 46.871,100.239 46.843,100.886C46.814,101.532 47.101,102.153 47.611,102.551L55.975,109.075C56.027,109.115 56.08,109.153 56.135,109.188L67.379,116.31C67.5,116.386 67.629,116.45 67.764,116.499L81.949,121.679C81.994,121.696 82.04,121.711 82.086,121.724L92.455,124.683C92.881,124.805 93.335,124.782 93.746,124.618L102.502,121.123C102.978,120.934 103.363,120.568 103.578,120.103L108.269,109.92C108.269,109.92 118.216,95.419 118.216,95.419C118.333,95.248 118.423,95.061 118.483,94.862L120.246,88.985C120.415,88.421 120.328,87.812 120.007,87.319L113.015,76.568C113.015,76.568 116.265,67.621 116.265,67.621C116.447,67.12 116.421,66.567 116.193,66.084C115.966,65.602 115.555,65.231 115.052,65.053L104.054,61.164C103.129,60.837 102.104,61.229 101.633,62.089L97.079,70.41ZM98.337,72.277L84.592,73.885L82.053,78.784L72.661,92.851L53.699,97.828L48.841,100.974L57.205,107.498L68.45,114.62L82.635,119.801L93.004,122.76L101.761,119.266L106.523,108.929L116.567,94.288L118.33,88.41L110.795,76.822L114.385,66.939L103.387,63.049L98.337,72.277Z" style="fill:white;"/>
        <path d="M116.567,94.209C115.042,98.001 113.631,101.718 112.052,105.365C110.787,108.288 109.398,111.167 107.919,113.994C105.705,118.223 103.206,122.299 100.287,126.108C99.505,127.129 98.461,127.753 97.023,127.71C93.448,127.601 89.934,127.057 86.478,126.252C83.104,125.466 79.751,124.541 76.466,123.457C71.884,121.945 67.524,119.933 63.311,117.579C59.966,115.709 56.835,113.567 53.777,111.306C52.719,110.524 51.734,109.639 50.777,108.737C49.112,107.167 47.443,105.597 45.88,103.933C44.874,102.862 43.98,101.673 43.172,100.45C42.066,98.775 43.377,95.767 46.076,95.637C51.461,95.375 56.754,94.665 61.921,93.063C66.588,91.616 70.982,89.669 74.897,86.784C77.628,84.771 79.927,82.357 81.556,79.383C81.624,79.258 81.703,79.136 81.797,79.028C81.87,78.943 81.972,78.881 82.092,78.784C84.135,79.914 86.167,81.038 88.4,82.274C87.271,83.895 86.292,85.524 85.09,86.976C82.698,89.866 79.845,92.271 76.624,94.275C73.369,96.301 69.942,97.99 66.266,99.095C62.673,100.175 58.999,100.998 55.355,101.914C55.048,101.991 54.703,101.924 54.099,101.924C54.591,102.441 54.896,102.844 55.281,103.151C57.491,104.914 59.723,106.651 61.943,108.402C62.859,109.124 63.745,108.486 64.568,108.267C67.836,107.395 70.788,105.913 73.283,103.595C71.753,106.546 69.904,109.269 67.319,111.748C69.744,112.879 72.129,113.916 74.44,115.094C76.552,116.169 78.415,115.225 80.219,114.475C83.724,113.017 86.82,110.879 89.7,108.448C90.698,107.606 91.71,106.781 92.763,105.909C92.568,107.69 87.914,115.537 85.095,118.826C88.19,119.343 91.188,119.74 94.128,120.385C95.279,120.638 95.699,120.175 96.205,119.433C99.103,115.181 101.685,110.745 103.785,106.078C105.756,101.695 107.439,97.188 109.223,92.726C109.461,92.13 109.641,91.826 110.402,92.108C112.362,92.836 114.362,93.466 116.567,94.209Z"/>
        <path d="M94.475,118.414C92.578,118.001 90.658,117.687 88.703,117.378C90.377,114.982 92.17,112.03 93.331,109.78C94.18,108.135 94.679,106.783 94.751,106.127C94.84,105.317 94.429,104.534 93.711,104.148C92.994,103.762 92.115,103.849 91.487,104.369C90.43,105.245 89.413,106.073 88.41,106.919C88.41,106.919 88.41,106.92 88.41,106.92C85.687,109.218 82.765,111.25 79.451,112.628C78.796,112.901 78.135,113.207 77.452,113.407C76.787,113.602 76.093,113.691 75.347,113.312C73.823,112.535 72.267,111.818 70.687,111.096C72.452,109.04 73.85,106.846 75.059,104.516C75.506,103.652 75.268,102.592 74.494,102.003C73.72,101.414 72.634,101.468 71.922,102.13C69.67,104.221 67.001,105.548 64.052,106.335C63.766,106.411 63.247,106.593 62.992,106.684L61.509,105.517C60.956,105.082 60.402,104.647 59.849,104.212L58.546,103.187C61.326,102.508 64.107,101.832 66.842,101.01C66.842,101.01 66.842,101.01 66.842,101.01C70.688,99.854 74.275,98.093 77.681,95.973C81.087,93.854 84.101,91.307 86.631,88.251C87.867,86.757 88.88,85.085 90.041,83.417C90.365,82.952 90.476,82.373 90.348,81.821C90.22,81.27 89.864,80.798 89.369,80.524C87.135,79.288 85.103,78.164 83.06,77.034C82.348,76.64 81.468,76.717 80.835,77.229C80.602,77.417 80.423,77.559 80.281,77.723C80.095,77.939 79.934,78.179 79.799,78.427C78.314,81.139 76.205,83.335 73.71,85.174C69.976,87.926 65.78,89.773 61.329,91.153C56.324,92.705 51.195,93.386 45.979,93.639C43.431,93.762 41.661,95.506 41.035,97.459C40.578,98.884 40.741,100.398 41.503,101.552C41.503,101.552 41.503,101.552 41.503,101.552C42.374,102.87 43.339,104.149 44.422,105.302C46.013,106.996 47.71,108.594 49.405,110.192C49.405,110.192 49.405,110.192 49.405,110.192C50.42,111.149 51.466,112.085 52.588,112.914C55.714,115.225 58.916,117.413 62.335,119.325C62.335,119.325 62.335,119.325 62.335,119.325C66.66,121.741 71.136,123.804 75.839,125.356C79.181,126.459 82.592,127.4 86.024,128.2C86.024,128.2 86.024,128.2 86.024,128.2C89.609,129.035 93.254,129.596 96.962,129.709C96.962,129.709 96.963,129.709 96.963,129.709C99.123,129.774 100.7,128.857 101.875,127.324C104.863,123.424 107.424,119.252 109.691,114.922C109.691,114.921 109.691,114.921 109.691,114.921C111.193,112.051 112.603,109.127 113.887,106.159C115.473,102.497 116.891,98.764 118.423,94.955C118.628,94.445 118.614,93.872 118.384,93.372C118.153,92.872 117.727,92.489 117.206,92.314C115.021,91.578 113.04,90.954 111.098,90.233C111.098,90.233 111.097,90.233 111.097,90.233C110.186,89.895 109.542,89.977 109.065,90.145C108.367,90.39 107.783,90.94 107.366,91.984C105.592,96.42 103.92,100.901 101.961,105.258C99.909,109.818 97.384,114.151 94.553,118.306C94.531,118.338 94.503,118.376 94.475,118.414ZM116.567,94.209C115.042,98.001 113.631,101.718 112.052,105.365C110.787,108.288 109.398,111.167 107.919,113.994C105.705,118.223 103.206,122.299 100.287,126.108C99.505,127.129 98.461,127.753 97.023,127.71C93.448,127.601 89.934,127.057 86.478,126.252C83.104,125.466 79.751,124.541 76.466,123.457C71.884,121.945 67.524,119.933 63.311,117.579C59.966,115.709 56.835,113.567 53.777,111.306C52.719,110.524 51.734,109.639 50.777,108.737C49.112,107.167 47.443,105.597 45.88,103.933C44.874,102.862 43.98,101.673 43.172,100.45C42.066,98.775 43.377,95.767 46.076,95.637C51.461,95.375 56.754,94.665 61.921,93.063C66.588,91.616 70.982,89.669 74.897,86.784C77.628,84.771 79.927,82.357 81.556,79.383C81.624,79.258 81.703,79.136 81.797,79.028C81.87,78.943 81.972,78.881 82.092,78.784C84.135,79.914 86.167,81.038 88.4,82.274C87.271,83.895 86.292,85.524 85.09,86.976C82.698,89.866 79.845,92.271 76.624,94.275C73.369,96.301 69.942,97.99 66.266,99.095C62.673,100.175 58.999,100.998 55.355,101.914C55.048,101.991 54.703,101.924 54.099,101.924C54.591,102.441 54.896,102.844 55.281,103.151C57.491,104.914 59.723,106.651 61.943,108.402C62.859,109.124 63.745,108.486 64.568,108.267C67.836,107.395 70.788,105.913 73.283,103.595C71.753,106.546 69.904,109.269 67.319,111.748C69.744,112.879 72.129,113.916 74.44,115.094C76.552,116.169 78.415,115.225 80.219,114.475C83.724,113.017 86.82,110.879 89.7,108.448C90.698,107.606 91.71,106.781 92.763,105.909C92.568,107.69 87.914,115.537 85.095,118.826C88.19,119.343 91.188,119.74 94.128,120.385C95.279,120.638 95.699,120.175 96.205,119.433C99.103,115.181 101.685,110.745 103.785,106.078C105.756,101.695 107.439,97.188 109.223,92.726C109.461,92.13 109.641,91.826 110.402,92.108C112.362,92.836 114.362,93.466 116.567,94.209Z" style="fill:white;"/>
        <path d="M84.592,73.879C85.086,73.081 85.473,72.253 86.043,71.569C88.678,68.411 92.135,66.987 96.253,67.469C97.84,67.655 99.411,68.281 100.899,68.911C105.111,70.691 109.32,72.489 113.447,74.448C116.702,75.992 118.603,78.654 119.243,82.157C119.598,84.098 119.456,85.977 118.752,87.836C118.549,88.371 118.412,88.554 117.83,88.291C116.532,87.704 115.2,87.189 113.892,86.623C109.589,84.763 105.288,82.898 100.991,81.025C98.028,79.733 95.076,78.415 92.113,77.121C89.688,76.064 87.254,75.026 84.592,73.879Z"/>
        <path d="M82.891,72.826C82.585,73.321 82.51,73.924 82.684,74.479C82.859,75.034 83.266,75.486 83.801,75.716C86.46,76.861 88.891,77.898 91.313,78.954C94.276,80.248 97.228,81.566 100.192,82.858C100.192,82.858 100.192,82.858 100.192,82.858C104.491,84.732 108.794,86.598 113.098,88.459C114.396,89.02 115.718,89.531 117.006,90.113C117.006,90.113 117.006,90.113 117.006,90.114C118.185,90.646 118.929,90.399 119.465,90.076C119.878,89.827 120.306,89.379 120.622,88.546C120.622,88.545 120.622,88.545 120.622,88.544C121.459,86.336 121.632,84.103 121.21,81.797C120.449,77.632 118.175,74.477 114.304,72.641C110.151,70.67 105.916,68.86 101.678,67.069C100.018,66.366 98.257,65.69 96.486,65.483C96.486,65.483 96.486,65.483 96.486,65.483C91.655,64.917 87.598,66.583 84.507,70.288C84.507,70.288 84.507,70.288 84.507,70.289C83.878,71.043 83.436,71.946 82.891,72.826ZM84.592,73.879C85.086,73.081 85.473,72.253 86.043,71.569C88.678,68.411 92.135,66.987 96.253,67.469C97.84,67.655 99.411,68.281 100.899,68.911C105.111,70.691 109.32,72.489 113.447,74.448C116.702,75.992 118.603,78.654 119.243,82.157C119.598,84.098 119.456,85.977 118.752,87.836C118.549,88.371 118.412,88.554 117.83,88.291C116.532,87.704 115.2,87.189 113.892,86.623C109.589,84.763 105.288,82.898 100.991,81.025C98.028,79.733 95.076,78.415 92.113,77.121C89.688,76.064 87.254,75.026 84.592,73.879Z" style="fill:white;"/>
        <path d="M102.455,64.683C104.467,61.034 106.447,57.464 108.408,53.884C109.694,51.536 110.947,49.172 112.225,46.82C113.598,44.293 114.974,41.767 116.366,39.251C116.904,38.277 117.832,38.085 118.868,38.157C120.89,38.297 122.594,38.986 123.489,40.894C123.673,41.286 123.691,41.864 123.545,42.274C121.989,46.632 120.39,50.976 118.791,55.319C117.074,59.984 115.342,64.645 113.614,69.305C113.596,69.353 113.528,69.384 113.443,69.459C109.824,67.886 106.185,66.304 102.455,64.683Z"/>
        <path d="M114.719,70.998C114.756,70.959 115.376,70.301 115.487,70.007C115.488,70.005 115.488,70.003 115.489,70C117.218,65.339 118.95,60.676 120.668,56.01C122.269,51.661 123.87,47.311 125.429,42.947C125.429,42.946 125.429,42.945 125.429,42.945C125.736,42.083 125.686,40.869 125.3,40.044C124.067,37.418 121.79,36.355 119.006,36.162C117.156,36.033 115.576,36.544 114.615,38.284C113.221,40.804 111.843,43.334 110.468,45.865C109.191,48.215 107.939,50.577 106.654,52.923C104.694,56.502 102.715,60.07 100.704,63.717C100.432,64.21 100.38,64.795 100.562,65.328C100.744,65.861 101.141,66.293 101.658,66.517C105.388,68.138 109.027,69.72 112.646,71.293C113.339,71.594 114.141,71.479 114.719,70.998ZM114.719,70.998L114.717,70.999C114.717,70.999 114.748,70.974 114.766,70.959L114.719,70.998ZM102.455,64.683C104.467,61.034 106.447,57.464 108.408,53.884C109.694,51.536 110.947,49.172 112.225,46.82C113.598,44.293 114.974,41.767 116.366,39.251C116.904,38.277 117.832,38.085 118.868,38.157C120.89,38.297 122.594,38.986 123.489,40.894C123.673,41.286 123.691,41.864 123.545,42.274C121.989,46.632 120.39,50.976 118.791,55.319C117.074,59.984 115.342,64.645 113.614,69.305C113.596,69.353 113.528,69.384 113.443,69.459C109.824,67.886 106.185,66.304 102.455,64.683Z" style="fill:white;"/>
        <path d="M42.451,77.654C42.188,73.068 46.5,68.712 51.752,68.972C56.249,69.195 60.388,72.912 60.206,77.976C60.045,82.476 56.3,86.532 50.828,86.345C46.436,86.195 42.231,82.401 42.451,77.654Z"/>
        <path d="M40.449,77.664C40.242,83.483 45.365,88.16 50.76,88.344C57.462,88.573 62.007,83.559 62.205,78.048C62.428,71.832 57.371,67.248 51.851,66.974C51.851,66.974 51.851,66.974 51.851,66.974C45.411,66.656 40.195,72.044 40.449,77.664ZM42.451,77.654C42.188,73.068 46.5,68.712 51.752,68.972C56.249,69.195 60.388,72.912 60.206,77.976C60.045,82.476 56.3,86.532 50.828,86.345C46.436,86.195 42.231,82.401 42.451,77.654Z" style="fill:white;"/>
        <path d="M53.039,62.161C51.168,62.379 49.347,60.452 49.43,58.619C49.518,56.668 51.019,55.213 53.035,55.136C54.846,55.067 56.669,56.804 56.679,58.697C56.688,60.451 54.908,62.436 53.039,62.161Z"/>
        <path d="M53.01,64.17C54.477,64.296 55.916,63.671 56.981,62.6C58.039,61.536 58.686,60.057 58.679,58.687C58.679,58.687 58.679,58.687 58.679,58.686C58.663,55.726 55.792,53.03 52.959,53.137C52.959,53.137 52.959,53.137 52.959,53.137C49.854,53.256 47.568,55.524 47.432,58.529C47.366,59.979 48.008,61.486 49.082,62.568C50.133,63.626 51.563,64.253 53.01,64.17ZM53.039,62.161C51.168,62.379 49.347,60.452 49.43,58.619C49.518,56.668 51.019,55.213 53.035,55.136C54.846,55.067 56.669,56.804 56.679,58.697C56.688,60.451 54.908,62.436 53.039,62.161Z" style="fill:white;"/>
    </g>
    <g id="organize">
        <path d="M194.21,67.368C198.165,71.786 200.144,77.719 200.144,85.169C200.144,92.908 198.18,98.942 194.253,103.273C190.325,107.604 184.84,109.77 177.795,109.77C170.749,109.77 165.263,107.619 161.337,103.316C157.409,99.015 155.447,92.995 155.447,85.255C155.447,80.347 156.327,76.06 158.089,72.392C159.85,68.725 162.42,65.867 165.798,63.817C169.176,61.768 173.174,60.742 177.795,60.742C184.782,60.742 190.254,62.951 194.21,67.368ZM171.558,74.298C170.229,76.58 169.566,80.232 169.566,85.256C169.566,90.339 170.229,94.02 171.558,96.3C172.886,98.582 174.965,99.721 177.795,99.721C180.624,99.721 182.703,98.567 184.032,96.256C185.36,93.947 186.024,90.251 186.024,85.169C186.024,80.203 185.359,76.58 184.032,74.298C182.703,72.018 180.624,70.877 177.795,70.877C174.965,70.876 172.886,72.018 171.558,74.298Z" style="fill-rule:nonzero;"/>
        <path d="M196.445,65.367C196.445,65.367 196.445,65.367 196.445,65.367C191.942,60.339 185.748,57.742 177.795,57.742C172.571,57.742 168.061,58.936 164.242,61.252C164.242,61.252 164.242,61.252 164.242,61.252C160.363,63.606 157.407,66.883 155.385,71.093C153.444,75.133 152.447,79.849 152.447,85.255C152.447,93.878 154.746,100.547 159.121,105.339C163.585,110.23 169.785,112.77 177.795,112.77C185.807,112.77 192.008,110.214 196.475,105.288C196.475,105.288 196.475,105.288 196.475,105.288C200.847,100.466 203.144,93.785 203.144,85.169C203.144,76.869 200.851,70.289 196.445,65.367ZM194.21,67.368C198.165,71.786 200.144,77.719 200.144,85.169C200.144,92.908 198.18,98.942 194.253,103.273C190.325,107.604 184.84,109.77 177.795,109.77C170.749,109.77 165.263,107.619 161.337,103.316C157.409,99.015 155.447,92.995 155.447,85.255C155.447,80.347 156.327,76.06 158.089,72.392C159.85,68.725 162.42,65.867 165.798,63.817C169.176,61.768 173.174,60.742 177.795,60.742C184.782,60.742 190.254,62.951 194.21,67.368ZM171.558,74.298C170.229,76.58 169.566,80.232 169.566,85.256C169.566,90.339 170.229,94.02 171.558,96.3C172.886,98.582 174.965,99.721 177.795,99.721C180.624,99.721 182.703,98.567 184.032,96.256C185.36,93.947 186.024,90.251 186.024,85.169C186.024,80.203 185.359,76.58 184.032,74.298C182.703,72.018 180.624,70.877 177.795,70.877C174.965,70.876 172.886,72.018 171.558,74.298ZM174.15,75.808C174.92,74.486 176.153,73.876 177.794,73.877C177.794,73.877 177.795,73.877 177.795,73.877C179.435,73.877 180.669,74.486 181.439,75.807C182.579,77.768 183.024,80.903 183.024,85.169C183.024,89.555 182.578,92.767 181.431,94.76C181.431,94.76 181.431,94.76 181.431,94.76C180.662,96.099 179.433,96.721 177.795,96.721C176.155,96.721 174.921,96.114 174.151,94.791C174.151,94.79 174.15,94.79 174.15,94.789C173.005,92.826 172.566,89.633 172.566,85.256C172.566,80.935 173.007,77.771 174.15,75.808L174.15,75.808Z" style="fill:white;"/>
        <path d="M252.548,62.301L250.036,81.531L241.374,81.531L241.374,73.129C238.832,73.534 236.58,74.891 234.617,77.2C232.653,79.511 231.123,82.427 230.026,85.949L230.026,99.116L239.122,99.116L239.122,108.298L210.277,108.298L210.277,99.116L216.34,99.116L216.34,71.396L210.277,71.396L210.277,62.301L226.821,62.301L229.247,72.609C230.921,68.683 233.028,65.752 235.57,63.817C238.11,61.883 241.229,60.915 244.925,60.915C247.698,60.915 250.239,61.378 252.548,62.301Z" style="fill-rule:nonzero;"/>
        <path d="M255.523,62.69C255.7,61.331 254.934,60.024 253.662,59.515C251.015,58.457 248.104,57.915 244.925,57.915C240.505,57.915 236.79,59.117 233.753,61.43C232.579,62.324 231.479,63.398 230.458,64.656C230.457,64.657 229.741,61.614 229.741,61.614C229.422,60.259 228.213,59.301 226.821,59.301L210.277,59.301C208.62,59.301 207.277,60.644 207.277,62.301L207.277,71.396C207.277,73.053 208.62,74.396 210.277,74.396L213.34,74.396C213.34,74.396 213.34,96.116 213.34,96.116C213.34,96.116 210.277,96.116 210.277,96.116C208.62,96.116 207.277,97.459 207.277,99.116L207.277,108.298C207.277,109.955 208.62,111.298 210.277,111.298L239.122,111.298C240.779,111.298 242.122,109.955 242.122,108.298L242.122,99.116C242.122,97.459 240.779,96.116 239.122,96.116L233.026,96.116C233.026,96.116 233.026,86.416 233.026,86.416C233.978,83.509 235.257,81.079 236.903,79.143C237.373,78.589 237.863,78.104 238.374,77.692C238.374,77.692 238.374,81.531 238.374,81.531C238.374,83.188 239.717,84.531 241.374,84.531L250.036,84.531C251.543,84.531 252.816,83.414 253.011,81.92L255.523,62.69ZM252.548,62.301L250.036,81.531L241.374,81.531L241.374,73.129C238.832,73.534 236.58,74.891 234.617,77.2C232.653,79.511 231.123,82.427 230.026,85.949L230.026,99.116L239.122,99.116L239.122,108.298L210.277,108.298L210.277,99.116L216.34,99.116L216.34,71.396L210.277,71.396L210.277,62.301L226.821,62.301L229.247,72.609C230.921,68.683 233.028,65.752 235.57,63.817C238.11,61.883 241.229,60.915 244.925,60.915C247.698,60.915 250.239,61.378 252.548,62.301Z" style="fill:white;"/>
        <path d="M305.82,64.986C302.816,66.198 298.399,66.805 292.567,66.805C295.569,68.134 297.807,69.722 299.28,71.569C300.753,73.418 301.489,75.785 301.489,78.672C301.489,81.617 300.679,84.259 299.063,86.598C297.446,88.937 295.166,90.771 292.22,92.098C289.275,93.427 285.866,94.09 281.998,94.09C280.093,94.09 278.302,93.917 276.628,93.57C276.165,93.801 275.805,94.163 275.545,94.653C275.285,95.145 275.155,95.649 275.155,96.169C275.155,97.035 275.486,97.714 276.151,98.205C276.814,98.696 278.157,98.941 280.179,98.941L287.801,98.941C291.266,98.941 294.326,99.519 296.983,100.673C299.639,101.829 301.689,103.416 303.133,105.437C304.576,107.459 305.299,109.738 305.299,112.28C305.299,117.073 303.205,120.812 299.019,123.498C294.831,126.183 288.724,127.526 280.699,127.526C274.982,127.526 270.491,126.933 267.229,125.75C263.965,124.566 261.685,122.905 260.385,120.77C259.086,118.633 258.437,115.947 258.437,112.714L270.564,112.714C270.564,114.157 270.837,115.283 271.386,116.092C271.935,116.9 272.959,117.507 274.461,117.911C275.962,118.314 278.156,118.517 281.045,118.517C285.086,118.517 287.873,118.054 289.403,117.131C290.932,116.207 291.699,114.907 291.699,113.233C291.699,111.847 291.136,110.734 290.01,109.898C288.884,109.06 287.223,108.642 285.03,108.642L277.754,108.642C273.018,108.642 269.467,107.79 267.1,106.086C264.731,104.383 263.548,102.203 263.548,99.546C263.548,97.813 263.994,96.182 264.891,94.651C265.786,93.122 267.041,91.836 268.659,90.797C265.771,89.238 263.692,87.405 262.423,85.297C261.152,83.19 260.518,80.634 260.518,77.631C260.518,74.224 261.384,71.251 263.117,68.709C264.849,66.168 267.274,64.219 270.392,62.862C273.511,61.506 277.062,60.826 281.047,60.826C285.666,60.943 289.592,60.494 292.827,59.484C296.06,58.474 299.351,56.958 302.702,54.936L305.82,64.986ZM276.239,71.829C274.996,73.215 274.377,75.092 274.377,77.459C274.377,79.943 275.012,81.877 276.282,83.263C277.552,84.649 279.256,85.342 281.392,85.342C283.645,85.342 285.377,84.664 286.589,83.306C287.802,81.95 288.408,79.943 288.408,77.285C288.408,72.261 286.069,69.749 281.391,69.749C279.197,69.75 277.48,70.443 276.239,71.829Z" style="fill-rule:nonzero;"/>
        <path d="M267.385,109.714L258.437,109.714C256.78,109.714 255.437,111.057 255.437,112.714C255.437,116.578 256.269,119.774 257.821,122.328C257.822,122.329 257.822,122.33 257.823,122.33C259.428,124.966 262.176,127.108 266.206,128.57C266.206,128.57 266.206,128.57 266.206,128.57C269.717,129.844 274.545,130.526 280.699,130.526C289.444,130.526 296.074,128.95 300.638,126.024C300.638,126.023 300.639,126.023 300.639,126.023C305.762,122.736 308.299,118.146 308.299,112.28C308.299,109.09 307.386,106.232 305.575,103.694C305.575,103.694 305.574,103.693 305.574,103.693C303.833,101.256 301.382,99.316 298.18,97.922C298.18,97.922 298.179,97.922 298.178,97.921C295.793,96.886 293.124,96.246 290.164,96.028C291.312,95.703 292.408,95.304 293.453,94.833C296.938,93.263 299.618,91.071 301.531,88.304C301.531,88.304 301.531,88.304 301.531,88.303C303.495,85.46 304.489,82.252 304.489,78.672C304.489,75.017 303.491,72.041 301.626,69.7L301.236,69.231C303.486,68.888 305.388,68.395 306.942,67.768C308.39,67.184 309.148,65.588 308.685,64.097L305.567,54.047C305.294,53.166 304.631,52.46 303.769,52.132C302.907,51.804 301.942,51.891 301.152,52.367C298.023,54.256 294.952,55.677 291.933,56.62C288.965,57.547 285.36,57.934 281.123,57.827C281.098,57.826 281.072,57.826 281.047,57.826C276.613,57.826 272.666,58.602 269.196,60.111C269.196,60.111 269.195,60.111 269.195,60.111C265.521,61.71 262.679,64.025 260.638,67.019C258.575,70.045 257.518,73.576 257.518,77.631C257.518,81.245 258.324,84.31 259.853,86.845C260.785,88.392 262.066,89.832 263.718,91.143C263.186,91.767 262.714,92.431 262.302,93.135C261.128,95.14 260.548,97.277 260.548,99.546C260.548,103.18 262.108,106.192 265.348,108.521C265.96,108.962 266.639,109.361 267.385,109.714ZM305.82,64.986C302.816,66.198 298.399,66.805 292.567,66.805C295.569,68.134 297.807,69.722 299.28,71.569C300.753,73.418 301.489,75.785 301.489,78.672C301.489,81.617 300.679,84.259 299.063,86.598C297.446,88.937 295.166,90.771 292.22,92.098C289.275,93.427 285.866,94.09 281.998,94.09C280.093,94.09 278.302,93.917 276.628,93.57C276.165,93.801 275.805,94.163 275.545,94.653C275.285,95.145 275.155,95.649 275.155,96.169C275.155,97.035 275.486,97.714 276.151,98.205C276.814,98.696 278.157,98.941 280.179,98.941L287.801,98.941C291.266,98.941 294.326,99.519 296.983,100.673C299.639,101.829 301.689,103.416 303.133,105.437C304.576,107.459 305.299,109.738 305.299,112.28C305.299,117.073 303.205,120.812 299.019,123.498C294.831,126.183 288.724,127.526 280.699,127.526C274.982,127.526 270.491,126.933 267.229,125.75C263.965,124.566 261.685,122.905 260.385,120.77C259.086,118.633 258.437,115.947 258.437,112.714L270.564,112.714C270.564,114.157 270.837,115.283 271.386,116.092C271.935,116.9 272.959,117.507 274.461,117.911C275.962,118.314 278.156,118.517 281.045,118.517C285.086,118.517 287.873,118.054 289.403,117.131C290.932,116.207 291.699,114.907 291.699,113.233C291.699,111.847 291.136,110.734 290.01,109.898C288.884,109.06 287.223,108.642 285.03,108.642L277.754,108.642C273.018,108.642 269.467,107.79 267.1,106.086C264.731,104.383 263.548,102.203 263.548,99.546C263.548,97.813 263.994,96.182 264.891,94.651C265.786,93.122 267.041,91.836 268.659,90.797C265.771,89.238 263.692,87.405 262.423,85.297C261.152,83.19 260.518,80.634 260.518,77.631C260.518,74.224 261.384,71.251 263.117,68.709C264.849,66.168 267.274,64.219 270.392,62.862C273.511,61.506 277.062,60.826 281.047,60.826C285.666,60.943 289.592,60.494 292.827,59.484C296.06,58.474 299.351,56.958 302.702,54.936L305.82,64.986ZM273.238,111.354C273.447,111.762 273.564,112.224 273.564,112.714C273.564,113.428 273.597,114.006 273.868,114.407C274.099,114.746 274.609,114.844 275.239,115.014C276.562,115.369 278.499,115.517 281.045,115.517C284.323,115.517 286.611,115.311 287.852,114.563C288.385,114.241 288.699,113.816 288.699,113.233C288.699,112.847 288.536,112.54 288.222,112.307C288.221,112.306 288.22,112.305 288.219,112.305C287.505,111.773 286.421,111.642 285.03,111.642C285.03,111.642 277.754,111.642 277.754,111.642C276.126,111.642 274.621,111.544 273.238,111.354ZM276.239,71.829C274.996,73.215 274.377,75.092 274.377,77.459C274.377,79.943 275.012,81.877 276.282,83.263C277.552,84.649 279.256,85.342 281.392,85.342C283.645,85.342 285.377,84.664 286.589,83.306C287.802,81.95 288.408,79.943 288.408,77.285C288.408,72.261 286.069,69.749 281.391,69.749C279.197,69.75 277.48,70.443 276.239,71.829ZM278.472,73.832C278.473,73.831 278.473,73.831 278.474,73.83C279.169,73.054 280.163,72.75 281.392,72.749C282.732,72.749 283.788,72.957 284.458,73.677C285.195,74.469 285.408,75.701 285.408,77.285C285.408,79.042 285.155,80.41 284.353,81.306C284.352,81.307 284.352,81.308 284.351,81.308C283.67,82.071 282.657,82.342 281.392,82.342C280.191,82.342 279.208,82.016 278.494,81.236C277.675,80.343 277.377,79.061 277.377,77.459C277.377,75.947 277.678,74.718 278.472,73.832Z" style="fill:white;"/>
        <path d="M354.934,98.769C355.395,99.578 356.176,100.185 357.274,100.588L354.415,109.597C351.644,109.307 349.333,108.687 347.485,107.735C345.635,106.782 344.194,105.382 343.153,103.534C341.421,105.556 339.226,107.1 336.57,108.168C333.914,109.236 331.084,109.771 328.082,109.771C323.346,109.771 319.562,108.428 316.734,105.743C313.904,103.057 312.49,99.579 312.49,95.305C312.49,90.339 314.452,86.484 318.38,83.741C322.307,80.999 327.821,79.626 334.925,79.626L341.075,79.626L341.075,77.98C341.075,73.246 338.043,70.877 331.98,70.877C330.421,70.877 328.472,71.093 326.133,71.526C323.794,71.959 321.527,72.552 319.333,73.302L316.215,64.207C319.159,63.111 322.235,62.258 325.44,61.652C328.645,61.046 331.547,60.742 334.146,60.742C347.542,60.742 354.241,66.171 354.241,77.027L354.241,95.045C354.24,96.719 354.471,97.96 354.934,98.769ZM337.48,98.639C339.067,97.744 340.265,96.516 341.074,94.957L341.074,87.421L337.696,87.421C330.303,87.421 326.609,89.732 326.609,94.351C326.609,96.142 327.142,97.528 328.212,98.509C329.279,99.491 330.795,99.982 332.759,99.982C334.318,99.981 335.891,99.535 337.48,98.639Z" style="fill-rule:nonzero;"/>
        <path d="M337.938,76.626L334.925,76.626C327.072,76.626 321.004,78.25 316.663,81.281C316.662,81.281 316.662,81.281 316.662,81.281C311.895,84.611 309.49,89.278 309.49,95.305C309.49,100.477 311.244,104.668 314.669,107.919C318.019,111.099 322.472,112.771 328.082,112.771C331.48,112.771 334.683,112.16 337.689,110.951C339.6,110.183 341.305,109.201 342.808,108.011C343.767,108.965 344.868,109.761 346.111,110.402C348.244,111.501 350.904,112.246 354.103,112.581C355.519,112.729 356.844,111.861 357.274,110.504L360.133,101.495C360.619,99.966 359.814,98.325 358.308,97.772C357.971,97.648 357.682,97.532 357.541,97.284C357.54,97.282 357.539,97.28 357.538,97.279C357.263,96.798 357.24,96.042 357.241,95.047L357.241,77.027C357.241,71.879 355.884,67.788 353.342,64.699C349.668,60.233 343.33,57.742 334.146,57.742C331.381,57.742 328.293,58.059 324.883,58.704C321.508,59.342 318.269,60.241 315.168,61.396C313.644,61.963 312.85,63.641 313.377,65.18L316.495,74.275C317.032,75.841 318.737,76.676 320.303,76.141C322.36,75.438 324.486,74.882 326.679,74.476C328.8,74.083 330.566,73.877 331.98,73.877C334.493,73.877 336.333,74.205 337.338,75.382C337.634,75.73 337.825,76.147 337.938,76.626ZM354.934,98.769C355.395,99.578 356.176,100.185 357.274,100.588L354.415,109.597C351.644,109.307 349.333,108.687 347.485,107.735C345.635,106.782 344.194,105.382 343.153,103.534C341.421,105.556 339.226,107.1 336.57,108.168C333.914,109.236 331.084,109.771 328.082,109.771C323.346,109.771 319.562,108.428 316.734,105.743C313.904,103.057 312.49,99.579 312.49,95.305C312.49,90.339 314.452,86.484 318.38,83.741C322.307,80.999 327.821,79.626 334.925,79.626L341.075,79.626L341.075,77.98C341.075,73.246 338.043,70.877 331.98,70.877C330.421,70.877 328.472,71.093 326.133,71.526C323.794,71.959 321.527,72.552 319.333,73.302L316.215,64.207C319.159,63.111 322.235,62.258 325.44,61.652C328.645,61.046 331.547,60.742 334.146,60.742C347.542,60.742 354.241,66.171 354.241,77.027L354.241,95.045C354.24,96.719 354.471,97.96 354.934,98.769ZM337.48,98.639C339.067,97.744 340.265,96.516 341.074,94.957L341.074,87.421L337.696,87.421C330.303,87.421 326.609,89.732 326.609,94.351C326.609,96.142 327.142,97.528 328.212,98.509C329.279,99.491 330.795,99.982 332.759,99.982C334.318,99.981 335.891,99.535 337.48,98.639ZM336.006,96.026C334.91,96.644 333.833,96.981 332.758,96.982C331.688,96.982 330.825,96.837 330.244,96.302C330.242,96.3 330.241,96.299 330.239,96.298C329.748,95.847 329.609,95.173 329.609,94.351C329.609,92.886 330.347,91.885 331.754,91.299C333.237,90.681 335.223,90.421 337.696,90.421C337.696,90.421 338.074,90.421 338.074,90.421C338.074,90.421 338.074,94.145 338.074,94.145C337.555,94.918 336.863,95.542 336.006,96.026Z" style="fill:white;"/>
        <path d="M367.491,62.301L379.447,62.301L380.398,67.585C382.478,65.276 384.658,63.557 386.939,62.431C389.22,61.305 391.802,60.742 394.691,60.742C398.675,60.742 401.779,61.955 404.003,64.38C406.226,66.805 407.337,70.184 407.337,74.515L407.337,108.297L393.651,108.297L393.651,78.499C393.651,75.612 393.333,73.62 392.698,72.522C392.061,71.426 390.907,70.876 389.233,70.876C387.848,70.876 386.504,71.324 385.206,72.219C383.907,73.115 382.563,74.427 381.179,76.16L381.179,108.297L367.491,108.297L367.491,62.301Z" style="fill-rule:nonzero;"/>
        <path d="M382.388,61.714C382.11,60.314 380.88,59.301 379.447,59.301L367.491,59.301C363.634,59.301 367.491,65.301 367.491,65.301C365.834,65.301 364.491,63.958 364.491,62.301L364.491,108.297C364.491,109.954 365.834,111.297 367.491,111.297L381.179,111.297C382.836,111.297 384.179,109.954 384.179,108.297L384.179,77.241C385.114,76.158 386.019,75.303 386.909,74.689C387.662,74.17 388.43,73.876 389.233,73.876C389.618,73.876 389.956,73.777 390.103,74.028C390.574,74.847 390.651,76.352 390.651,78.499L390.651,108.297C390.651,109.954 391.994,111.297 393.651,111.297L407.337,111.297C408.994,111.297 410.337,109.954 410.337,108.297L410.337,74.515C410.337,69.302 408.89,65.272 406.214,62.353C406.214,62.353 406.214,62.352 406.214,62.352C403.453,59.342 399.637,57.742 394.691,57.742C391.306,57.742 388.284,58.421 385.611,59.741C384.518,60.281 383.443,60.937 382.388,61.714ZM367.491,62.301L379.447,62.301L380.398,67.585C382.478,65.276 384.658,63.557 386.939,62.431C389.22,61.305 391.802,60.742 394.691,60.742C398.675,60.742 401.779,61.955 404.003,64.38C406.226,66.805 407.337,70.184 407.337,74.515L407.337,108.297L393.651,108.297L393.651,78.499C393.651,75.612 393.333,73.62 392.698,72.522C392.061,71.426 390.907,70.876 389.233,70.876C387.848,70.876 386.504,71.324 385.206,72.219C383.907,73.115 382.563,74.427 381.179,76.16L381.179,108.297L367.491,108.297L367.491,62.301Z" style="fill:white;"/>
        <path d="M447.53,98.942L459.31,98.942L459.31,108.297L420.851,108.297L420.851,98.942L433.843,98.942L433.843,71.656L421.284,71.656L421.284,62.301L447.53,62.301L447.53,98.942ZM445.105,40.429C446.605,41.902 447.357,43.736 447.357,45.929C447.357,48.181 446.605,50.03 445.105,51.473C443.603,52.917 441.667,53.639 439.3,53.639C436.933,53.639 434.984,52.903 433.454,51.43C431.923,49.957 431.159,48.125 431.159,45.93C431.159,43.736 431.923,41.902 433.454,40.43C434.983,38.958 436.933,38.222 439.3,38.222C441.667,38.222 443.604,38.957 445.105,40.429Z" style="fill-rule:nonzero;"/>
        <path d="M450.53,95.942L450.53,62.301C450.53,60.644 449.187,59.301 447.53,59.301L421.284,59.301C419.627,59.301 418.284,60.644 418.284,62.301L418.284,71.656C418.284,73.313 419.627,74.656 421.284,74.656L430.843,74.656C430.843,74.656 430.843,95.942 430.843,95.942C430.843,95.942 420.851,95.942 420.851,95.942C419.194,95.942 417.851,97.285 417.851,98.942L417.851,108.297C417.851,109.954 419.194,111.297 420.851,111.297L459.31,111.297C460.967,111.297 462.31,109.954 462.31,108.297L462.31,98.942C462.31,97.285 460.967,95.942 459.31,95.942L450.53,95.942ZM447.53,98.942L459.31,98.942L459.31,108.297L420.851,108.297L420.851,98.942L433.843,98.942L433.843,71.656L421.284,71.656L421.284,62.301L447.53,62.301L447.53,98.942ZM447.207,38.289C447.206,38.288 447.206,38.288 447.206,38.287C445.156,36.277 442.532,35.222 439.3,35.222C436.084,35.222 433.452,36.268 431.374,38.268C429.24,40.321 428.159,42.871 428.159,45.93C428.159,48.99 429.239,51.538 431.374,53.592C433.453,55.593 436.084,56.639 439.3,56.639C442.523,56.639 445.139,55.602 447.184,53.636C447.184,53.635 447.185,53.635 447.185,53.635C449.274,51.625 450.357,49.065 450.357,45.929C450.357,42.879 449.293,40.337 447.207,38.289ZM445.105,40.429C446.605,41.902 447.357,43.736 447.357,45.929C447.357,48.181 446.605,50.03 445.105,51.473C443.603,52.917 441.667,53.639 439.3,53.639C436.933,53.639 434.984,52.903 433.454,51.43C431.923,49.957 431.159,48.125 431.159,45.93C431.159,43.736 431.923,41.902 433.454,40.43C434.983,38.958 436.933,38.222 439.3,38.222C441.667,38.222 443.604,38.957 445.105,40.429Z" style="fill:white;"/>
        <path d="M507.299,97.902L506,108.297L468.145,108.297L468.145,98.595L491.014,72.609L470.051,72.609L470.051,62.301L506.865,62.301L506.865,71.916L484.344,97.902L507.299,97.902Z" style="fill-rule:nonzero;"/>
        <path d="M510.276,98.274C510.383,97.42 510.117,96.562 509.548,95.917C508.979,95.271 508.159,94.902 507.299,94.902L490.914,94.902C490.914,94.902 509.132,73.881 509.132,73.881C509.605,73.335 509.865,72.638 509.865,71.916L509.865,62.301C509.865,60.644 508.522,59.301 506.865,59.301L470.051,59.301C468.394,59.301 467.051,60.644 467.051,62.301L467.051,72.609C467.051,74.266 468.394,75.609 470.051,75.609L484.378,75.609C484.378,75.609 465.893,96.613 465.893,96.613C465.411,97.161 465.145,97.865 465.145,98.595L465.145,108.297C465.145,109.954 466.488,111.297 468.145,111.297L506,111.297C507.513,111.297 508.789,110.17 508.977,108.669L510.276,98.274ZM507.299,97.902L506,108.297L468.145,108.297L468.145,98.595L491.014,72.609L470.051,72.609L470.051,62.301L506.865,62.301L506.865,71.916L484.344,97.902L507.299,97.902Z" style="fill:white;"/>
        <path d="M537.703,99.808C541.629,99.808 545.555,98.538 549.482,95.996L554.939,103.446C552.687,105.41 550.001,106.954 546.884,108.08C543.765,109.206 540.329,109.769 536.575,109.769C531.434,109.769 527.075,108.743 523.495,106.694C519.915,104.645 517.216,101.786 515.395,98.118C513.577,94.451 512.666,90.192 512.666,85.342C512.666,80.722 513.547,76.55 515.309,72.825C517.071,69.1 519.641,66.155 523.018,63.99C526.397,61.824 530.424,60.742 535.102,60.742C539.491,60.742 543.301,61.681 546.536,63.557C549.77,65.434 552.266,68.148 554.03,71.7C555.79,75.252 556.671,79.482 556.671,84.39C556.671,86.296 556.585,87.942 556.411,89.328L526.614,89.328C527.48,96.314 531.176,99.808 537.703,99.808ZM529.127,72.652C527.625,74.471 526.731,77.257 526.441,81.011L543.332,81.011C543.217,73.619 540.475,69.923 535.103,69.923C532.619,69.923 530.627,70.833 529.127,72.652Z" style="fill-rule:nonzero;"/>
        <path d="M537.703,96.808C535.331,96.808 533.439,96.277 532.096,95.007C531.355,94.307 530.792,93.409 530.377,92.328C530.377,92.328 556.411,92.328 556.411,92.328C557.923,92.328 559.199,91.202 559.388,89.702C559.575,88.211 559.671,86.44 559.671,84.39C559.671,78.964 558.664,74.295 556.718,70.368C556.718,70.367 556.717,70.366 556.717,70.366C554.678,66.259 551.781,63.132 548.042,60.962C548.042,60.962 548.041,60.962 548.041,60.962C544.378,58.838 540.072,57.742 535.102,57.742C529.793,57.742 525.233,59.006 521.399,61.464C521.399,61.464 521.399,61.464 521.399,61.464C517.545,63.935 514.608,67.291 512.597,71.542C510.654,75.65 509.666,80.247 509.666,85.342C509.666,90.7 510.699,95.399 512.707,99.451C512.707,99.451 512.708,99.452 512.708,99.452C514.798,103.663 517.895,106.946 522.005,109.298C525.995,111.582 530.844,112.769 536.575,112.769C540.701,112.769 544.475,112.139 547.903,110.902C547.903,110.902 547.903,110.902 547.903,110.902C551.391,109.642 554.391,107.905 556.911,105.707C558.085,104.683 558.28,102.93 557.359,101.673L551.902,94.223C550.963,92.941 549.186,92.614 547.852,93.478C544.464,95.671 541.09,96.808 537.703,96.808ZM537.703,99.808C541.629,99.808 545.555,98.538 549.482,95.996L554.939,103.446C552.687,105.41 550.001,106.954 546.884,108.08C543.765,109.206 540.329,109.769 536.575,109.769C531.434,109.769 527.075,108.743 523.495,106.694C519.915,104.645 517.216,101.786 515.395,98.118C513.577,94.451 512.666,90.192 512.666,85.342C512.666,80.722 513.547,76.55 515.309,72.825C517.071,69.1 519.641,66.155 523.018,63.99C526.397,61.824 530.424,60.742 535.102,60.742C539.491,60.742 543.301,61.681 546.536,63.557C549.77,65.434 552.266,68.148 554.03,71.7C555.79,75.252 556.671,79.482 556.671,84.39C556.671,86.296 556.585,87.942 556.411,89.328L526.614,89.328C527.48,96.314 531.176,99.808 537.703,99.808ZM529.127,72.652C527.625,74.471 526.731,77.257 526.441,81.011L543.332,81.011C543.217,73.619 540.475,69.923 535.103,69.923C532.619,69.923 530.627,70.833 529.127,72.652ZM531.44,74.562C531.441,74.562 531.441,74.561 531.442,74.561C532.357,73.45 533.586,72.923 535.103,72.923C538.05,72.923 539.539,74.737 540.085,78.011C540.085,78.011 529.897,78.011 529.897,78.011C530.229,76.583 530.726,75.428 531.44,74.562Z" style="fill:white;"/>
    </g>
    <g id="Slogan">
        <g id="Background" transform="matrix(1.4009,0,0,1.00603,52.9894,101.917)">
            <rect x="184.531" y="14.775" width="176.354" height="15.418" style="fill:white;fill-opacity:0.63;"/>
        </g>
        <g id="Text">
            <path d="M317.155,128.034L315.804,128.034L315.804,121.095L313.382,121.095L313.382,120L319.611,120L319.471,121.095L317.154,121.095L317.154,128.034L317.155,128.034Z" style="fill-rule:nonzero;"/>
            <path d="M322.325,122.643C322.573,122.34 322.862,122.111 323.192,121.956C323.522,121.801 323.869,121.723 324.234,121.723C324.8,121.723 325.228,121.88 325.515,122.195C325.802,122.51 325.946,122.962 325.946,123.551L325.946,128.033L324.642,128.033L324.642,123.748C324.642,123.383 324.572,123.122 324.433,122.962C324.293,122.803 324.068,122.723 323.758,122.723C323.486,122.723 323.224,122.81 322.972,122.985C322.72,123.16 322.504,123.375 322.326,123.631L322.326,128.032L321.022,128.032L321.022,119.428L322.326,119.288L322.326,122.643L322.325,122.643Z" style="fill-rule:nonzero;"/>
            <path d="M329.607,126.724C329.914,127.023 330.3,127.173 330.765,127.173C331.052,127.173 331.326,127.128 331.586,127.039C331.846,126.95 332.112,126.816 332.384,126.638L332.943,127.43C332.656,127.671 332.318,127.857 331.93,127.989C331.542,128.121 331.134,128.187 330.707,128.187C329.768,128.187 329.038,127.894 328.518,127.308C327.998,126.722 327.738,125.94 327.738,124.962C327.738,124.349 327.85,123.796 328.075,123.303C328.3,122.81 328.626,122.424 329.053,122.145C329.48,121.865 329.977,121.726 330.543,121.726C331.358,121.726 332.004,122 332.481,122.547C332.959,123.094 333.197,123.845 333.197,124.8C333.197,125.033 333.185,125.227 333.162,125.382L329.087,125.382C329.127,125.977 329.3,126.425 329.607,126.724ZM329.531,123.144C329.267,123.447 329.115,123.897 329.077,124.495L331.93,124.495C331.914,123.913 331.79,123.467 331.557,123.156C331.324,122.846 330.99,122.69 330.556,122.69C330.137,122.689 329.795,122.841 329.531,123.144Z" style="fill-rule:nonzero;"/>
            <path d="M347.555,119.627L347.159,120.535C346.763,120.365 346.325,120.279 345.843,120.279C345.441,120.279 345.142,120.357 344.947,120.511C344.754,120.667 344.656,120.907 344.656,121.233L344.656,122.327L346.717,122.327L346.567,123.293L344.657,123.293L344.657,128.032L343.354,128.032L343.354,123.293L341.956,123.293L341.956,122.327L343.354,122.327L343.354,121.221C343.354,120.833 343.452,120.492 343.651,120.197C343.848,119.902 344.126,119.673 344.483,119.51C344.84,119.347 345.251,119.265 345.717,119.265C346.383,119.267 346.996,119.387 347.555,119.627Z" style="fill-rule:nonzero;"/>
            <path d="M352.315,127.079L353.993,127.079L353.993,128.034L349.184,128.034L349.184,127.079L351.011,127.079L351.011,122.841L349.241,122.841L349.241,121.886L352.315,121.886L352.315,127.079ZM352.031,119.109C352.189,119.268 352.269,119.464 352.269,119.697C352.269,119.93 352.189,120.124 352.031,120.28C351.872,120.435 351.668,120.512 351.42,120.512C351.163,120.512 350.958,120.435 350.803,120.28C350.648,120.125 350.57,119.93 350.57,119.697C350.57,119.457 350.65,119.259 350.809,119.103C350.968,118.947 351.171,118.87 351.42,118.87C351.668,118.871 351.872,118.951 352.031,119.109Z" style="fill-rule:nonzero;"/>
            <path d="M358.649,126.357C358.649,126.878 358.96,127.137 359.581,127.137C359.892,127.137 360.217,127.067 360.559,126.928L360.885,127.836C360.458,128.069 359.931,128.185 359.302,128.185C358.689,128.185 358.209,128.012 357.864,127.667C357.519,127.322 357.346,126.846 357.346,126.241L357.346,120.373L355.494,120.373L355.494,119.418L358.649,119.418L358.649,126.357Z" style="fill-rule:nonzero;"/>
            <path d="M364.534,126.724C364.841,127.023 365.227,127.173 365.693,127.173C365.98,127.173 366.254,127.128 366.513,127.039C366.773,126.95 367.039,126.816 367.311,126.638L367.87,127.43C367.583,127.671 367.245,127.857 366.857,127.989C366.468,128.121 366.061,128.187 365.634,128.187C364.695,128.187 363.965,127.894 363.446,127.308C362.925,126.722 362.666,125.94 362.666,124.962C362.666,124.349 362.778,123.796 363.004,123.303C363.229,122.81 363.555,122.424 363.982,122.145C364.409,121.865 364.906,121.726 365.472,121.726C366.287,121.726 366.933,122 367.41,122.547C367.888,123.094 368.126,123.845 368.126,124.8C368.126,125.033 368.114,125.227 368.092,125.382L364.017,125.382C364.056,125.977 364.228,126.425 364.534,126.724ZM364.459,123.144C364.195,123.447 364.044,123.897 364.005,124.495L366.858,124.495C366.842,123.913 366.718,123.467 366.485,123.156C366.253,122.846 365.919,122.69 365.484,122.69C365.064,122.689 364.723,122.841 364.459,123.144Z" style="fill-rule:nonzero;"/>
            <path d="M382.04,122.119C382.257,122.383 382.366,122.833 382.366,123.47L382.366,128.034L381.213,128.034L381.213,123.645C381.213,123.303 381.188,123.067 381.138,122.935C381.087,122.803 380.977,122.737 380.806,122.737C380.48,122.737 380.177,122.943 379.898,123.354L379.898,128.035L378.838,128.035L378.838,123.646C378.838,123.304 378.813,123.068 378.763,122.936C378.712,122.804 378.602,122.738 378.431,122.738C378.105,122.738 377.802,122.944 377.523,123.355L377.523,128.036L376.359,128.036L376.359,121.889L377.337,121.889L377.431,122.553C377.624,122.282 377.823,122.076 378.025,121.936C378.226,121.796 378.467,121.727 378.747,121.727C379.29,121.727 379.64,121.987 379.795,122.507C379.982,122.258 380.183,122.067 380.4,121.931C380.617,121.795 380.866,121.727 381.145,121.727C381.523,121.723 381.822,121.855 382.04,122.119Z" style="fill-rule:nonzero;"/>
            <path d="M388.699,127.05C388.769,127.163 388.889,127.246 389.06,127.3L388.757,128.185C388.112,128.107 387.69,127.824 387.487,127.335C387.261,127.615 386.98,127.826 386.643,127.97C386.305,128.114 385.934,128.185 385.531,128.185C384.91,128.185 384.417,128.01 384.052,127.661C383.687,127.312 383.505,126.85 383.505,126.275C383.505,125.631 383.759,125.134 384.268,124.785C384.776,124.436 385.496,124.261 386.427,124.261L387.3,124.261L387.3,123.865C387.3,123.477 387.184,123.194 386.951,123.015C386.718,122.837 386.38,122.747 385.937,122.747C385.72,122.747 385.467,122.774 385.18,122.828C384.893,122.883 384.602,122.96 384.307,123.061L383.981,122.142C384.718,121.862 385.437,121.723 386.135,121.723C386.95,121.723 387.563,121.902 387.975,122.259C388.386,122.616 388.592,123.125 388.592,123.784L388.592,126.532C388.595,126.765 388.629,126.938 388.699,127.05ZM386.702,127.021C386.955,126.881 387.154,126.687 387.302,126.438L387.302,125.076L386.58,125.076C385.99,125.076 385.559,125.175 385.288,125.373C385.016,125.571 384.88,125.856 384.88,126.228C384.88,126.554 384.968,126.803 385.143,126.973C385.318,127.144 385.576,127.229 385.917,127.229C386.188,127.23 386.45,127.161 386.702,127.021Z" style="fill-rule:nonzero;"/>
            <path d="M390.876,121.886L392.006,121.886L392.099,122.689C392.355,122.379 392.656,122.14 393.001,121.973C393.346,121.806 393.709,121.723 394.09,121.723C394.656,121.723 395.083,121.882 395.37,122.201C395.657,122.52 395.801,122.97 395.801,123.552L395.801,128.034L394.497,128.034L394.497,124.203C394.497,123.823 394.476,123.53 394.433,123.324C394.391,123.118 394.307,122.967 394.183,122.87C394.059,122.773 393.872,122.724 393.624,122.724C393.345,122.724 393.078,122.809 392.826,122.98C392.574,123.151 392.358,123.364 392.18,123.621L392.18,128.034L390.876,128.034L390.876,121.886Z" style="fill-rule:nonzero;"/>
            <path d="M402.671,127.05C402.741,127.163 402.861,127.246 403.032,127.3L402.729,128.185C402.084,128.107 401.662,127.824 401.459,127.335C401.233,127.615 400.952,127.826 400.615,127.97C400.277,128.114 399.906,128.185 399.503,128.185C398.882,128.185 398.389,128.01 398.024,127.661C397.659,127.312 397.477,126.85 397.477,126.275C397.477,125.631 397.731,125.134 398.24,124.785C398.748,124.436 399.468,124.261 400.399,124.261L401.272,124.261L401.272,123.865C401.272,123.477 401.156,123.194 400.923,123.015C400.69,122.837 400.352,122.747 399.909,122.747C399.692,122.747 399.439,122.774 399.152,122.828C398.865,122.883 398.574,122.96 398.279,123.061L397.953,122.142C398.69,121.862 399.409,121.723 400.107,121.723C400.922,121.723 401.535,121.902 401.947,122.259C402.358,122.616 402.564,123.125 402.564,123.784L402.564,126.532C402.566,126.765 402.601,126.938 402.671,127.05ZM400.674,127.021C400.927,126.881 401.126,126.687 401.274,126.438L401.274,125.076L400.552,125.076C399.962,125.076 399.531,125.175 399.26,125.373C398.988,125.571 398.852,125.856 398.852,126.228C398.852,126.554 398.94,126.803 399.115,126.973C399.29,127.144 399.548,127.229 399.889,127.229C400.16,127.23 400.422,127.161 400.674,127.021Z" style="fill-rule:nonzero;"/>
            <path d="M410.366,122.189C410.141,122.267 409.887,122.319 409.603,122.346C409.319,122.373 408.98,122.387 408.584,122.387C408.957,122.558 409.236,122.771 409.423,123.028C409.609,123.284 409.702,123.594 409.702,123.959C409.702,124.363 409.602,124.72 409.405,125.03C409.207,125.341 408.926,125.585 408.56,125.763C408.196,125.942 407.764,126.031 407.268,126.031C406.918,126.031 406.639,125.996 406.43,125.926C406.344,125.988 406.279,126.064 406.232,126.153C406.185,126.242 406.162,126.338 406.162,126.438C406.162,126.749 406.414,126.904 406.919,126.904L407.99,126.904C408.425,126.904 408.812,126.978 409.154,127.125C409.496,127.272 409.761,127.477 409.952,127.736C410.142,127.996 410.237,128.289 410.237,128.615C410.237,129.228 409.973,129.704 409.445,130.041C408.918,130.379 408.157,130.547 407.164,130.547C406.473,130.547 405.928,130.475 405.528,130.332C405.128,130.188 404.844,129.979 404.677,129.704C404.51,129.428 404.427,129.073 404.427,128.639L405.591,128.639C405.591,128.872 405.636,129.056 405.725,129.192C405.814,129.327 405.971,129.428 406.197,129.494C406.423,129.56 406.748,129.593 407.176,129.593C407.796,129.593 408.242,129.517 408.515,129.366C408.786,129.215 408.922,128.991 408.922,128.697C408.922,128.448 408.816,128.257 408.602,128.121C408.388,127.985 408.099,127.917 407.735,127.917L406.675,127.917C406.123,127.917 405.706,127.804 405.423,127.579C405.14,127.354 404.998,127.071 404.998,126.729C404.998,126.52 405.057,126.318 405.173,126.124C405.289,125.93 405.456,125.763 405.674,125.624C405.309,125.43 405.043,125.195 404.876,124.92C404.709,124.645 404.626,124.305 404.626,123.901C404.626,123.474 404.734,123.096 404.951,122.766C405.169,122.436 405.472,122.18 405.859,121.998C406.248,121.815 406.69,121.724 407.186,121.724C407.854,121.732 408.383,121.685 408.776,121.584C409.168,121.483 409.585,121.324 410.027,121.106L410.366,122.189ZM406.269,122.975C406.059,123.204 405.955,123.512 405.955,123.9C405.955,124.296 406.061,124.608 406.275,124.838C406.488,125.067 406.8,125.181 407.212,125.181C407.601,125.181 407.896,125.069 408.097,124.844C408.299,124.619 408.4,124.297 408.4,123.877C408.4,123.047 408.001,122.631 407.201,122.631C406.788,122.631 406.478,122.746 406.269,122.975Z" style="fill-rule:nonzero;"/>
            <path d="M413.434,126.724C413.741,127.023 414.127,127.173 414.593,127.173C414.88,127.173 415.154,127.128 415.413,127.039C415.673,126.95 415.939,126.816 416.211,126.638L416.77,127.43C416.483,127.671 416.145,127.857 415.757,127.989C415.368,128.121 414.961,128.187 414.534,128.187C413.595,128.187 412.865,127.894 412.346,127.308C411.825,126.722 411.566,125.94 411.566,124.962C411.566,124.349 411.678,123.796 411.904,123.303C412.129,122.81 412.455,122.424 412.882,122.145C413.309,121.865 413.806,121.726 414.372,121.726C415.187,121.726 415.833,122 416.31,122.547C416.788,123.094 417.026,123.845 417.026,124.8C417.026,125.033 417.014,125.227 416.992,125.382L412.917,125.382C412.955,125.977 413.127,126.425 413.434,126.724ZM413.358,123.144C413.094,123.447 412.943,123.897 412.904,124.495L415.757,124.495C415.741,123.913 415.617,123.467 415.384,123.156C415.152,122.846 414.818,122.69 414.383,122.69C413.964,122.689 413.622,122.841 413.358,123.144Z" style="fill-rule:nonzero;"/>
            <path d="M423.953,122.119C424.17,122.383 424.279,122.833 424.279,123.47L424.279,128.034L423.126,128.034L423.126,123.645C423.126,123.303 423.101,123.067 423.051,122.935C423,122.803 422.89,122.737 422.719,122.737C422.393,122.737 422.09,122.943 421.811,123.354L421.811,128.035L420.751,128.035L420.751,123.646C420.751,123.304 420.726,123.068 420.676,122.936C420.625,122.804 420.515,122.738 420.344,122.738C420.018,122.738 419.715,122.944 419.436,123.355L419.436,128.036L418.272,128.036L418.272,121.889L419.25,121.889L419.344,122.553C419.537,122.282 419.736,122.076 419.938,121.936C420.139,121.796 420.38,121.727 420.66,121.727C421.203,121.727 421.553,121.987 421.708,122.507C421.895,122.258 422.096,122.067 422.313,121.931C422.53,121.795 422.779,121.727 423.058,121.727C423.437,121.723 423.735,121.855 423.953,122.119Z" style="fill-rule:nonzero;"/>
            <path d="M427.404,126.724C427.711,127.023 428.097,127.173 428.563,127.173C428.85,127.173 429.124,127.128 429.383,127.039C429.643,126.95 429.909,126.816 430.181,126.638L430.74,127.43C430.453,127.671 430.115,127.857 429.727,127.989C429.338,128.121 428.931,128.187 428.504,128.187C427.565,128.187 426.835,127.894 426.316,127.308C425.795,126.722 425.536,125.94 425.536,124.962C425.536,124.349 425.648,123.796 425.874,123.303C426.099,122.81 426.425,122.424 426.852,122.145C427.279,121.865 427.776,121.726 428.342,121.726C429.157,121.726 429.803,122 430.28,122.547C430.758,123.094 430.996,123.845 430.996,124.8C430.996,125.033 430.984,125.227 430.962,125.382L426.887,125.382C426.926,125.977 427.098,126.425 427.404,126.724ZM427.329,123.144C427.065,123.447 426.914,123.897 426.875,124.495L429.728,124.495C429.712,123.913 429.588,123.467 429.355,123.156C429.123,122.846 428.789,122.69 428.354,122.69C427.935,122.689 427.593,122.841 427.329,123.144Z" style="fill-rule:nonzero;"/>
            <path d="M432.79,121.886L433.92,121.886L434.013,122.689C434.269,122.379 434.57,122.14 434.915,121.973C435.26,121.806 435.623,121.723 436.004,121.723C436.57,121.723 436.997,121.882 437.284,122.201C437.571,122.52 437.715,122.97 437.715,123.552L437.715,128.034L436.411,128.034L436.411,124.203C436.411,123.823 436.39,123.53 436.347,123.324C436.305,123.118 436.221,122.967 436.097,122.87C435.973,122.773 435.786,122.724 435.538,122.724C435.259,122.724 434.992,122.809 434.74,122.98C434.488,123.151 434.272,123.364 434.094,123.621L434.094,128.034L432.79,128.034L432.79,121.886Z" style="fill-rule:nonzero;"/>
            <path d="M444.095,128.057C443.784,128.142 443.458,128.185 443.117,128.185C442.418,128.185 441.879,128.004 441.499,127.643C441.118,127.282 440.928,126.791 440.928,126.17L440.928,122.84L439.566,122.84L439.566,121.885L440.928,121.885L440.928,120.511L442.233,120.36L442.233,121.885L444.317,121.885L444.166,122.84L442.233,122.84L442.233,126.158C442.233,126.492 442.318,126.739 442.489,126.897C442.66,127.056 442.931,127.136 443.304,127.136C443.715,127.136 444.095,127.039 444.445,126.845L444.911,127.706C444.677,127.855 444.405,127.972 444.095,128.057Z" style="fill-rule:nonzero;"/>
            <path d="M458.556,127.05C458.626,127.163 458.746,127.246 458.917,127.3L458.614,128.185C457.969,128.107 457.547,127.824 457.344,127.335C457.118,127.615 456.837,127.826 456.5,127.97C456.162,128.114 455.791,128.185 455.388,128.185C454.767,128.185 454.274,128.01 453.909,127.661C453.544,127.312 453.362,126.85 453.362,126.275C453.362,125.631 453.616,125.134 454.125,124.785C454.633,124.436 455.353,124.261 456.284,124.261L457.157,124.261L457.157,123.865C457.157,123.477 457.041,123.194 456.808,123.015C456.575,122.837 456.237,122.747 455.794,122.747C455.577,122.747 455.324,122.774 455.037,122.828C454.75,122.883 454.459,122.96 454.164,123.061L453.838,122.142C454.575,121.862 455.294,121.723 455.992,121.723C456.807,121.723 457.42,121.902 457.832,122.259C458.243,122.616 458.449,123.125 458.449,123.784L458.449,126.532C458.451,126.765 458.485,126.938 458.556,127.05ZM456.559,127.021C456.812,126.881 457.011,126.687 457.159,126.438L457.159,125.076L456.437,125.076C455.847,125.076 455.416,125.175 455.145,125.373C454.873,125.571 454.737,125.856 454.737,126.228C454.737,126.554 454.825,126.803 455,126.973C455.175,127.144 455.433,127.229 455.774,127.229C456.045,127.23 456.307,127.161 456.559,127.021Z" style="fill-rule:nonzero;"/>
            <path d="M462.036,126.183C462.036,126.54 462.108,126.798 462.252,126.957C462.396,127.116 462.614,127.196 462.91,127.196C463.189,127.196 463.459,127.114 463.719,126.951C463.979,126.788 464.187,126.583 464.342,126.334L464.342,121.886L465.646,121.886L465.646,128.033L464.517,128.033L464.435,127.241C464.218,127.544 463.935,127.776 463.585,127.939C463.235,128.102 462.875,128.184 462.502,128.184C461.912,128.184 461.47,128.025 461.175,127.706C460.88,127.388 460.733,126.934 460.733,126.344L460.733,121.885L462.037,121.885L462.037,126.183L462.036,126.183Z" style="fill-rule:nonzero;"/>
            <path d="M472.037,128.057C471.726,128.142 471.4,128.185 471.059,128.185C470.36,128.185 469.821,128.004 469.441,127.643C469.06,127.282 468.87,126.791 468.87,126.17L468.87,122.84L467.508,122.84L467.508,121.885L468.87,121.885L468.87,120.511L470.175,120.36L470.175,121.885L472.259,121.885L472.108,122.84L470.175,122.84L470.175,126.158C470.175,126.492 470.26,126.739 470.431,126.897C470.602,127.056 470.873,127.136 471.246,127.136C471.657,127.136 472.037,127.039 472.387,126.845L472.853,127.706C472.619,127.855 472.348,127.972 472.037,128.057Z" style="fill-rule:nonzero;"/>
            <path d="M479.221,122.591C479.702,123.169 479.943,123.955 479.943,124.948C479.943,125.942 479.699,126.729 479.21,127.312C478.721,127.894 478.038,128.185 477.161,128.185C476.276,128.185 475.591,127.9 475.105,127.329C474.621,126.759 474.377,125.969 474.377,124.96C474.377,123.982 474.623,123.198 475.116,122.608C475.609,122.019 476.294,121.723 477.172,121.723C478.057,121.723 478.739,122.013 479.221,122.591ZM476.106,123.283C475.869,123.648 475.751,124.207 475.751,124.96C475.751,125.721 475.867,126.281 476.101,126.643C476.333,127.004 476.687,127.184 477.161,127.184C477.634,127.184 477.987,127.002 478.221,126.637C478.453,126.272 478.57,125.709 478.57,124.949C478.57,124.196 478.454,123.639 478.221,123.278C477.988,122.917 477.638,122.737 477.173,122.737C476.698,122.736 476.343,122.918 476.106,123.283Z" style="fill-rule:nonzero;"/>
            <path d="M486.823,122.119C487.04,122.383 487.149,122.833 487.149,123.47L487.149,128.034L485.996,128.034L485.996,123.645C485.996,123.303 485.971,123.067 485.921,122.935C485.87,122.803 485.76,122.737 485.589,122.737C485.263,122.737 484.96,122.943 484.681,123.354L484.681,128.035L483.621,128.035L483.621,123.646C483.621,123.304 483.596,123.068 483.546,122.936C483.495,122.804 483.385,122.738 483.214,122.738C482.888,122.738 482.585,122.944 482.306,123.355L482.306,128.036L481.142,128.036L481.142,121.889L482.12,121.889L482.214,122.553C482.407,122.282 482.606,122.076 482.808,121.936C483.009,121.796 483.25,121.727 483.53,121.727C484.073,121.727 484.423,121.987 484.578,122.507C484.765,122.258 484.966,122.067 485.183,121.931C485.4,121.795 485.649,121.727 485.928,121.727C486.307,121.723 486.605,121.855 486.823,122.119Z" style="fill-rule:nonzero;"/>
            <path d="M493.483,127.05C493.553,127.163 493.673,127.246 493.844,127.3L493.541,128.185C492.896,128.107 492.474,127.824 492.271,127.335C492.045,127.615 491.764,127.826 491.427,127.97C491.089,128.114 490.718,128.185 490.315,128.185C489.694,128.185 489.201,128.01 488.836,127.661C488.471,127.312 488.289,126.85 488.289,126.275C488.289,125.631 488.543,125.134 489.052,124.785C489.56,124.436 490.28,124.261 491.211,124.261L492.084,124.261L492.084,123.865C492.084,123.477 491.968,123.194 491.735,123.015C491.502,122.837 491.164,122.747 490.721,122.747C490.504,122.747 490.251,122.774 489.964,122.828C489.677,122.883 489.386,122.96 489.091,123.061L488.765,122.142C489.502,121.862 490.221,121.723 490.919,121.723C491.734,121.723 492.347,121.902 492.759,122.259C493.17,122.616 493.376,123.125 493.376,123.784L493.376,126.532C493.379,126.765 493.413,126.938 493.483,127.05ZM491.486,127.021C491.739,126.881 491.938,126.687 492.086,126.438L492.086,125.076L491.364,125.076C490.774,125.076 490.343,125.175 490.072,125.373C489.8,125.571 489.664,125.856 489.664,126.228C489.664,126.554 489.752,126.803 489.927,126.973C490.102,127.144 490.36,127.229 490.701,127.229C490.973,127.23 491.234,127.161 491.486,127.021Z" style="fill-rule:nonzero;"/>
            <path d="M499.979,128.057C499.668,128.142 499.342,128.185 499.001,128.185C498.302,128.185 497.763,128.004 497.383,127.643C497.002,127.282 496.812,126.791 496.812,126.17L496.812,122.84L495.45,122.84L495.45,121.885L496.812,121.885L496.812,120.511L498.117,120.36L498.117,121.885L500.201,121.885L500.05,122.84L498.117,122.84L498.117,126.158C498.117,126.492 498.202,126.739 498.373,126.897C498.544,127.056 498.815,127.136 499.188,127.136C499.599,127.136 499.979,127.039 500.329,126.845L500.795,127.706C500.562,127.855 500.29,127.972 499.979,128.057Z" style="fill-rule:nonzero;"/>
            <path d="M505.998,127.079L507.676,127.079L507.676,128.034L502.867,128.034L502.867,127.079L504.694,127.079L504.694,122.841L502.924,122.841L502.924,121.886L505.998,121.886L505.998,127.079ZM505.714,119.109C505.872,119.268 505.952,119.464 505.952,119.697C505.952,119.93 505.872,120.124 505.714,120.28C505.555,120.435 505.351,120.512 505.103,120.512C504.846,120.512 504.641,120.435 504.486,120.28C504.331,120.125 504.253,119.93 504.253,119.697C504.253,119.457 504.333,119.259 504.492,119.103C504.651,118.947 504.854,118.87 505.103,118.87C505.351,118.871 505.555,118.951 505.714,119.109Z" style="fill-rule:nonzero;"/>
            <path d="M514.149,122.591C514.63,123.169 514.871,123.955 514.871,124.948C514.871,125.942 514.627,126.729 514.138,127.312C513.649,127.894 512.966,128.185 512.089,128.185C511.204,128.185 510.519,127.9 510.033,127.329C509.549,126.759 509.305,125.969 509.305,124.96C509.305,123.982 509.551,123.198 510.044,122.608C510.537,122.019 511.222,121.723 512.1,121.723C512.985,121.723 513.668,122.013 514.149,122.591ZM511.035,123.283C510.798,123.648 510.68,124.207 510.68,124.96C510.68,125.721 510.796,126.281 511.03,126.643C511.262,127.004 511.616,127.184 512.09,127.184C512.563,127.184 512.916,127.002 513.15,126.637C513.382,126.272 513.499,125.709 513.499,124.949C513.499,124.196 513.383,123.639 513.15,123.278C512.917,122.917 512.567,122.737 512.102,122.737C511.627,122.736 511.271,122.918 511.035,123.283Z" style="fill-rule:nonzero;"/>
            <path d="M516.617,121.886L517.747,121.886L517.84,122.689C518.096,122.379 518.397,122.14 518.742,121.973C519.087,121.806 519.45,121.723 519.831,121.723C520.397,121.723 520.824,121.882 521.111,122.201C521.398,122.52 521.542,122.97 521.542,123.552L521.542,128.034L520.238,128.034L520.238,124.203C520.238,123.823 520.217,123.53 520.174,123.324C520.132,123.118 520.048,122.967 519.924,122.87C519.8,122.773 519.613,122.724 519.365,122.724C519.086,122.724 518.819,122.809 518.567,122.98C518.315,123.151 518.099,123.364 517.921,123.621L517.921,128.034L516.617,128.034L516.617,121.886Z" style="fill-rule:nonzero;"/>
            <path d="M534.907,128.057C534.596,128.142 534.27,128.185 533.929,128.185C533.23,128.185 532.691,128.004 532.311,127.643C531.93,127.282 531.74,126.791 531.74,126.17L531.74,122.84L530.378,122.84L530.378,121.885L531.74,121.885L531.74,120.511L533.045,120.36L533.045,121.885L535.129,121.885L534.978,122.84L533.045,122.84L533.045,126.158C533.045,126.492 533.13,126.739 533.301,126.897C533.472,127.056 533.743,127.136 534.116,127.136C534.527,127.136 534.907,127.039 535.257,126.845L535.723,127.706C535.489,127.855 535.218,127.972 534.907,128.057Z" style="fill-rule:nonzero;"/>
            <path d="M542.091,122.591C542.572,123.169 542.813,123.955 542.813,124.948C542.813,125.942 542.569,126.729 542.08,127.312C541.591,127.894 540.908,128.185 540.031,128.185C539.146,128.185 538.461,127.9 537.975,127.329C537.491,126.759 537.247,125.969 537.247,124.96C537.247,123.982 537.493,123.198 537.986,122.608C538.479,122.019 539.164,121.723 540.042,121.723C540.927,121.723 541.609,122.013 542.091,122.591ZM538.977,123.283C538.74,123.648 538.622,124.207 538.622,124.96C538.622,125.721 538.738,126.281 538.972,126.643C539.204,127.004 539.558,127.184 540.032,127.184C540.505,127.184 540.858,127.002 541.092,126.637C541.324,126.272 541.441,125.709 541.441,124.949C541.441,124.196 541.325,123.639 541.092,123.278C540.859,122.917 540.509,122.737 540.044,122.737C539.568,122.736 539.213,122.918 538.977,123.283Z" style="fill-rule:nonzero;"/>
            <path d="M549.077,122.591C549.558,123.169 549.799,123.955 549.799,124.948C549.799,125.942 549.555,126.729 549.066,127.312C548.577,127.894 547.894,128.185 547.017,128.185C546.132,128.185 545.447,127.9 544.961,127.329C544.477,126.759 544.233,125.969 544.233,124.96C544.233,123.982 544.479,123.198 544.972,122.608C545.465,122.019 546.15,121.723 547.028,121.723C547.913,121.723 548.596,122.013 549.077,122.591ZM545.963,123.283C545.726,123.648 545.608,124.207 545.608,124.96C545.608,125.721 545.724,126.281 545.958,126.643C546.19,127.004 546.544,127.184 547.018,127.184C547.491,127.184 547.844,127.002 548.078,126.637C548.31,126.272 548.427,125.709 548.427,124.949C548.427,124.196 548.311,123.639 548.078,123.278C547.845,122.917 547.495,122.737 547.03,122.737C546.555,122.736 546.199,122.918 545.963,123.283Z" style="fill-rule:nonzero;"/>
            <path d="M554.246,126.357C554.246,126.878 554.557,127.137 555.178,127.137C555.489,127.137 555.814,127.067 556.156,126.928L556.482,127.836C556.055,128.069 555.528,128.185 554.899,128.185C554.286,128.185 553.806,128.012 553.461,127.667C553.116,127.322 552.943,126.846 552.943,126.241L552.943,120.373L551.091,120.373L551.091,119.418L554.246,119.418L554.246,126.357Z" style="fill-rule:nonzero;"/>
        </g>
    </g>
</svg>
